HIERARCHY
ROOT SpineBase
{
  OFFSET 0.000000 0.000000 0.000000
  CHANNELS 6 Xposition Yposition Zposition Zrotation Xrotation Yrotation
  JOINT SpineMid
  {
    OFFSET 0.000000 30.712541 0.000000
    CHANNELS 3 Zrotation Xrotation Yrotation
    JOINT SpineShoulder
    {
      OFFSET -0.112442 22.852744 -0.691282
      CHANNELS 3 Zrotation Xrotation Yrotation
      JOINT Neck
      {
        OFFSET -0.070158 7.571904 -0.535564
        CHANNELS 3 Zrotation Xrotation Yrotation
        JOINT Head
        {
          OFFSET -6.120571 12.615561 1.345787
          CHANNELS 3 Zrotation Xrotation Yrotation
          End Site
          {
            OFFSET 0 0 0
          }
        }
      }
      JOINT ShoulderLeft
      {
        OFFSET -12.573112 -5.080166 11.634731
        CHANNELS 3 Zrotation Xrotation Yrotation
        JOINT ElbowLeft
        {
          OFFSET -0.149109 -27.182560 1.773675
          CHANNELS 3 Zrotation Xrotation Yrotation
          JOINT WristLeft
          {
            OFFSET -1.186096 -21.338234 -5.858501
            CHANNELS 3 Zrotation Xrotation Yrotation
            JOINT HandLeft
            {
              OFFSET 0.118953 -3.098529 -1.046635
              CHANNELS 3 Zrotation Xrotation Yrotation
              JOINT HandTipLeft
              {
                OFFSET 1.096026 -3.679409 -2.152644
                CHANNELS 3 Zrotation Xrotation Yrotation
                End Site
                {
                  OFFSET 0 0 0
                }
              }
              JOINT ThumbLeft
              {
                OFFSET 1.839212 2.991832 -4.758499
                CHANNELS 3 Zrotation Xrotation Yrotation
                End Site
                {
                  OFFSET 0 0 0
                }
              }
            }
          }
        }
      }
      JOINT ShoulderRight
      {
        OFFSET 9.894640 -2.674989 -11.897985
        CHANNELS 3 Zrotation Xrotation Yrotation
        JOINT ElbowRight
        {
          OFFSET 6.199450 -21.987463 -5.306844
          CHANNELS 3 Zrotation Xrotation Yrotation
          JOINT WristRight
          {
            OFFSET -2.757505 -20.814918 -5.232409
            CHANNELS 3 Zrotation Xrotation Yrotation
            JOINT HandRight
            {
              OFFSET -0.607407 -6.791899 -1.003834
              CHANNELS 3 Zrotation Xrotation Yrotation
              JOINT HandTipRight
              {
                OFFSET -0.656799 -6.457030 -0.050517
                CHANNELS 3 Zrotation Xrotation Yrotation
                End Site
                {
                  OFFSET 0 0 0
                }
              }
              JOINT ThumbRight
              {
                OFFSET 1.971981 -1.053460 -3.214387
                CHANNELS 3 Zrotation Xrotation Yrotation
                End Site
                {
                  OFFSET 0 0 0
                }
              }
            }
          }
        }
      }
    }
  }
  JOINT HipLeft
  {
    OFFSET -5.296381 -0.171846 0.750354
    CHANNELS 3 Zrotation Xrotation Yrotation
    JOINT KneeLeft
    {
      OFFSET 2.775422 -25.870486 2.190895
      CHANNELS 3 Zrotation Xrotation Yrotation
      JOINT AnkleLeft
      {
        OFFSET 2.694140 -29.704089 6.083309
        CHANNELS 3 Zrotation Xrotation Yrotation
        JOINT FootLeft
        {
          OFFSET -3.204691 -6.903134 -3.285634
          CHANNELS 3 Zrotation Xrotation Yrotation
          End Site
          {
            OFFSET 0 0 0
          }
        }
      }
    }
  }
  JOINT HipRight
  {
    OFFSET 5.002385 1.934533 -7.591645
    CHANNELS 3 Zrotation Xrotation Yrotation
    JOINT KneeRight
    {
      OFFSET 9.187969 -22.218854 -5.708521
      CHANNELS 3 Zrotation Xrotation Yrotation
      JOINT AnkleRight
      {
        OFFSET 11.049157 -31.696133 3.638463
        CHANNELS 3 Zrotation Xrotation Yrotation
        JOINT FootRight
        {
          OFFSET -3.294214 -5.702847 -6.443740
          CHANNELS 3 Zrotation Xrotation Yrotation
          End Site
          {
            OFFSET 0 0 0
          }
        }
      }
    }
  }
}
MOTION
Frames: 8
Frame Time: 0.033333
14.675773 65.906346 363.412180 -0.000000 0.000000 39.007467 0.000000 -0.000000 -39.007467 -0.000000 0.000000 0.000000 -0.000000 0.000000 0.000000 0.000000 0.000000 0.000000 -0.000000 0.000000 0.000000 -0.000000 0.000000 0.000000 -0.000000 0.000000 0.000000 -0.000000 0.000000 0.000000 0.000000 0.000000 0.000000 0.000000 0.000000 0.000000 -0.000000 0.000000 0.000000 -0.000000 0.000000 0.000000 -0.000000 0.000000 0.000000 -0.000000 0.000000 0.000000 0.000000 0.000000 0.000000 0.000000 0.000000 0.000000 0.000000 -0.000000 -39.007467 -0.000000 0.000000 0.000000 -0.000000 0.000000 0.000000 0.000000 0.000000 0.000000 0.000000 -0.000000 -39.007467 -0.000000 0.000000 0.000000 -0.000000 0.000000 0.000000 0.000000 0.000000 0.000000
14.558551 65.853897 363.415222 -0.010289 -0.027917 38.847594 0.025524 0.015288 -38.847600 -0.000000 0.000000 0.000000 -0.000000 0.000000 0.000000 0.000000 0.000000 0.000000 -0.000000 0.000000 0.000000 0.146033 0.829963 -0.087119 -0.175024 2.133071 0.206811 -1.788366 -9.309927 -1.202694 0.000000 0.000000 0.000000 0.000000 0.000000 0.000000 -0.000000 0.000000 0.000000 -0.000000 0.000000 0.000000 -5.105034 -1.601710 0.825262 10.779968 -0.108777 -0.922653 0.000000 0.000000 0.000000 0.000000 0.000000 0.000000 0.025524 0.015288 -38.847600 -0.000000 0.000000 0.000000 -0.000000 0.000000 0.000000 0.000000 0.000000 0.000000 0.025524 0.015288 -38.847600 -0.000000 0.000000 0.000000 -6.072490 7.265646 2.767252 0.000000 0.000000 0.000000
14.471729 65.808554 363.412956 -0.001102 -0.041774 38.705991 0.026982 0.031909 -38.705999 -0.000000 0.000000 0.000000 -0.000000 0.000000 0.000000 0.000000 0.000000 0.000000 -0.000000 0.000000 0.000000 0.282103 1.634440 -0.171685 -0.237682 3.466863 0.338110 -3.158431 -15.435201 -2.174805 0.000000 0.000000 0.000000 0.000000 0.000000 0.000000 1.125137 -0.136651 -0.307992 -1.125858 0.130575 0.310617 -9.332628 -3.136789 1.402275 18.631936 0.394220 -2.010797 0.000000 0.000000 0.000000 0.000000 0.000000 0.000000 0.026982 0.031909 -38.705999 -0.000000 0.000000 0.000000 -0.000000 0.000000 0.000000 0.000000 0.000000 0.000000 0.026982 0.031909 -38.705999 -0.000000 0.000000 0.000000 -10.528458 12.087087 5.146085 0.000000 0.000000 0.000000
14.415305 65.770317 363.405381 0.027523 -0.041607 38.582720 0.004433 0.049689 -38.582712 -0.000000 0.000000 0.000000 -0.000000 0.000000 0.000000 0.000000 0.000000 0.000000 -0.000000 0.000000 0.000000 0.405987 2.403421 -0.252194 -0.193368 4.227357 0.405984 -4.238008 -19.474244 -2.881866 0.000000 0.000000 0.000000 0.000000 0.000000 0.000000 1.460611 -0.179079 -0.399472 -1.619606 1.001166 0.333433 -12.494442 -5.376702 1.659819 23.979084 1.470292 -3.154141 0.000000 0.000000 0.000000 0.000000 0.000000 0.000000 0.004433 0.049689 -38.582712 -0.000000 0.000000 0.000000 -0.000000 0.000000 0.000000 0.000000 0.000000 0.000000 0.004433 0.049689 -38.582712 -0.000000 0.000000 0.000000 -13.685492 15.232073 6.976919 0.000000 0.000000 0.000000
14.389280 65.739186 363.392500 0.075568 -0.027440 38.477786 -0.042085 0.068501 -38.477742 -0.000000 0.000000 0.000000 -0.000000 0.000000 0.000000 0.000000 0.000000 0.000000 -0.000000 0.000000 0.000000 0.515546 3.127060 -0.327110 -0.041508 4.558318 0.418224 -5.093888 -22.025879 -3.322732 0.000000 0.000000 0.000000 0.000000 0.000000 0.000000 1.639986 -0.202555 -0.448442 -2.005630 1.260396 0.405952 -14.696370 -6.856191 1.752672 27.094225 3.183781 -4.263546 0.000000 0.000000 0.000000 0.000000 0.000000 0.000000 -0.042085 0.068501 -38.477742 -0.000000 0.000000 0.000000 0.487310 -0.690773 0.092128 0.000000 0.000000 0.000000 -0.042085 0.068501 -38.477742 -0.000000 0.000000 0.000000 -15.804239 17.228752 8.259390 0.000000 0.000000 0.000000
14.393654 65.715161 363.374310 0.143032 0.000718 38.391129 -0.112553 0.088264 -38.391043 -0.000000 0.000000 0.000000 -0.000000 0.000000 0.000000 0.000000 0.000000 0.000000 -0.258393 0.780298 -0.019390 0.865490 3.016110 -0.363694 0.223817 4.550004 0.379320 -5.765039 -23.407289 -3.498279 0.000000 0.000000 0.000000 0.000000 0.000000 0.000000 1.661733 -0.206476 -0.454659 -2.311205 1.487259 0.458079 -15.948132 -8.150848 1.711582 28.092750 5.679742 -5.255799 0.000000 0.000000 0.000000 0.000000 0.000000 0.000000 -0.112553 0.088264 -38.391043 -0.000000 0.000000 0.000000 0.687685 -0.764680 0.032465 0.000000 0.000000 0.000000 -0.112553 0.088264 -38.391043 -0.000000 0.000000 0.000000 -17.066115 18.395196 9.033511 0.000000 0.000000 0.000000
14.462313 65.705851 363.345478 0.254798 0.067911 38.403747 -0.241860 0.105062 -38.403677 -0.000000 0.000000 0.000000 -0.000000 0.000000 0.000000 0.000000 0.000000 0.000000 -0.304352 1.046954 -0.022835 0.963024 3.420941 -0.410555 0.245171 3.207549 0.391911 -6.166082 -23.193679 -3.444417 0.000000 0.000000 0.000000 0.000000 0.000000 0.000000 1.347833 -0.141217 -0.362385 -2.286413 1.758002 0.397910 -16.447037 -9.338628 1.585071 26.780366 9.489840 -6.039110 0.000000 0.000000 0.000000 0.000000 0.000000 0.000000 -0.241860 0.105062 -38.403677 -0.000000 0.000000 0.000000 1.571823 -1.027179 -0.259982 0.000000 0.000000 0.000000 -0.241860 0.105062 -38.403677 -0.000000 0.000000 0.000000 -15.244226 16.927184 7.823837 0.000000 0.000000 0.000000
14.563982 65.706907 363.310636 0.392686 0.142573 38.338345 -0.396446 0.131757 -38.338378 -0.000000 0.000000 0.000000 -0.000000 0.000000 0.000000 0.000000 0.000000 0.000000 -0.417811 1.045904 -0.029203 1.129054 3.889479 -0.445840 0.584904 3.592657 0.332642 -6.100088 -22.516989 -2.990262 0.000000 0.000000 0.000000 0.000000 0.000000 0.000000 1.021245 -0.094027 -0.271536 -2.500082 1.958315 0.419568 -15.243834 -11.030091 1.304145 21.116334 18.977173 -6.647300 0.000000 0.000000 0.000000 0.000000 0.000000 0.000000 -0.396446 0.131757 -38.338378 -0.000000 0.000000 0.000000 1.544475 -0.972342 -0.273458 0.000000 0.000000 0.000000 -0.396446 0.131757 -38.338378 -0.000000 0.000000 0.000000 -15.155716 17.007288 7.700492 0.000000 0.000000 0.000000
